<svg width="16" height="20" viewBox="0 0 16 20" fill="none" xmlns="http://www.w3.org/2000/svg">
<path fill-rule="evenodd" clip-rule="evenodd" d="M12.2487 1.04125C12.2969 1.16 12.3253 1.27711 12.3425 1.38866C12.7738 1.3961 13.1192 1.42135 13.4297 1.50614C14.6269 1.83311 15.5614 2.786 15.8818 4.005C16.0004 4.45589 16.0002 4.97928 16 5.72643L15.9999 13.7506C16 15.0099 16 16.0319 15.8937 16.8374C15.7831 17.6763 15.5449 18.3934 14.9846 18.9646C14.424 19.5359 13.7199 19.7788 12.8962 19.8917C12.1058 20 11.1029 20 9.8675 20H6.13247C4.89713 20 3.89423 20 3.10378 19.8917C2.28008 19.7788 1.57599 19.5359 1.01544 18.9646C0.455051 18.3934 0.216921 17.6763 0.106261 16.8374C1.11982e-05 16.0319 3.12105e-05 15.01 5.12105e-05 13.7506L2.11698e-05 5.7265C-0.00021883 4.97931 -0.000388861 4.4559 0.118151 4.005C0.438621 2.786 1.37306 1.83311 2.57032 1.50614C2.88077 1.42136 3.22617 1.3961 3.6574 1.38866C3.67468 1.27711 3.70302 1.16 3.75128 1.04125C3.9191 0.628306 4.24116 0.299846 4.647 0.128514C4.83687 0.0483547 5.02246 0.0220157 5.18711 0.010566C5.33935 -2.07284e-05 5.51971 -1.03633e-05 5.71243 7.14092e-07H10.2875C10.4802 -1.03633e-05 10.6606 -2.07284e-05 10.8128 0.010566C10.9775 0.0220157 11.1631 0.0483547 11.3529 0.128514C11.7588 0.299846 12.0808 0.628306 12.2487 1.04125ZM12.2487 3.25473C12.2959 3.13848 12.3241 3.02381 12.3414 2.91438C12.7087 2.92094 12.8909 2.93762 13.0413 2.9787C13.7207 3.16424 14.2521 3.70534 14.4344 4.39904C14.4952 4.63018 14.5016 4.9346 14.5016 5.84306V13.6951C14.5016 15.023 14.5001 15.9424 14.4087 16.6345C14.3203 17.3048 14.1603 17.6468 13.9242 17.8873C13.6884 18.1277 13.3533 18.2906 12.6962 18.3807C12.0174 18.4737 11.1157 18.4753 9.8127 18.4753H6.1873C4.88428 18.4753 3.98255 18.4737 3.30375 18.3807C2.64665 18.2906 2.31162 18.1277 2.07575 17.8873C1.83971 17.6468 1.67967 17.3048 1.59125 16.6345C1.49995 15.9424 1.49836 15.023 1.49836 13.6951V5.84306C1.49836 4.9346 1.50479 4.63018 1.56556 4.39904C1.74793 3.70534 2.27932 3.16424 2.9587 2.9787C3.10911 2.93763 3.29129 2.92095 3.65851 2.91438C3.67588 3.02381 3.70403 3.13848 3.75128 3.25473C3.9191 3.66767 4.24116 3.99613 4.647 4.16746C4.83687 4.24762 5.02246 4.27396 5.18711 4.28541C5.33936 4.296 5.51974 4.29599 5.71247 4.29598H10.2875C10.4802 4.29599 10.6606 4.296 10.8128 4.28541C10.9775 4.27396 11.1631 4.24762 11.3529 4.16746C11.7588 3.99613 12.0808 3.66767 12.2487 3.25473ZM5.28926 1.53169C5.38418 1.52509 5.51262 1.52468 5.7341 1.52468H10.2658C10.4873 1.52468 10.6158 1.52509 10.7107 1.53169C10.7542 1.53472 10.7771 1.5384 10.7862 1.54018C10.8187 1.55597 10.8452 1.58286 10.8609 1.61655C10.8626 1.62582 10.8663 1.64924 10.8693 1.69436C10.8758 1.79125 10.8762 1.9223 10.8762 2.14799C10.8762 2.37368 10.8758 2.50473 10.8693 2.60162C10.8663 2.64673 10.8626 2.67016 10.8609 2.67943C10.8452 2.71311 10.8187 2.74 10.7862 2.7558C10.7771 2.75758 10.7542 2.76126 10.7107 2.76428C10.6158 2.77089 10.4873 2.7713 10.2658 2.7713H5.7341C5.51262 2.7713 5.38418 2.77089 5.28926 2.76428C5.2457 2.76126 5.22288 2.75758 5.21372 2.7558C5.1812 2.74 5.15473 2.71311 5.13907 2.67943C5.13732 2.67016 5.13364 2.64673 5.13062 2.60162C5.12414 2.50473 5.12373 2.37368 5.12373 2.14799C5.12373 1.9223 5.12414 1.79125 5.13062 1.69436C5.13364 1.64925 5.13732 1.62582 5.13907 1.61655C5.15473 1.58286 5.1812 1.55597 5.21372 1.54018C5.22288 1.5384 5.2457 1.53472 5.28926 1.53169Z" fill="black"/>
</svg>
